<svg width="190" height="42" viewBox="0 0 190 42" fill="none" xmlns="http://www.w3.org/2000/svg">
<g clip-path="url(#clip0_332_31)">
<path d="M23.9294 33.7264L28.1957 8.0284H39.288C41.1953 8.0284 42.8014 8.40483 44.1064 9.15771C45.4113 9.91058 46.3483 10.9688 46.9171 12.3323C47.4859 13.6959 47.6198 15.2894 47.3186 17.1131C47.0175 18.9701 46.3483 20.5721 45.311 21.9189C44.282 23.2573 42.9687 24.2904 41.3709 25.0182C39.7815 25.7376 37.9997 26.0973 36.0255 26.0973H29.4003L30.3037 20.6767H35.5236C36.3602 20.6767 37.0963 20.5344 37.7321 20.25C38.3678 19.9572 38.8823 19.5473 39.2754 19.0203C39.6686 18.485 39.9237 17.8492 40.0409 17.1131C40.158 16.3769 40.1036 15.7495 39.8777 15.2309C39.6602 14.7039 39.2838 14.3023 38.7484 14.0263C38.2214 13.7419 37.548 13.5997 36.7282 13.5997H34.2688L30.906 33.7264H23.9294ZM51.6759 34.0276C50.4545 34.0276 49.4047 33.8268 48.5264 33.4253C47.6564 33.0154 47.0206 32.3964 46.6191 31.5682C46.2259 30.7317 46.1381 29.6777 46.3556 28.4061C46.5312 27.3521 46.8617 26.4529 47.3469 25.7083C47.832 24.9638 48.4343 24.3532 49.1538 23.8764C49.8732 23.3995 50.6804 23.0357 51.5755 22.7847C52.4789 22.5254 53.4326 22.3581 54.4364 22.2828C55.5239 22.1991 56.4064 22.0946 57.084 21.9691C57.7616 21.8436 58.2677 21.6721 58.6023 21.4546C58.9369 21.2371 59.1377 20.9443 59.2046 20.5763V20.5261C59.2799 20.0242 59.146 19.6394 58.8031 19.3717C58.4685 19.104 58 18.9701 57.3977 18.9701C56.7452 18.9701 56.1806 19.1124 55.7037 19.3968C55.2353 19.6812 54.9132 20.1245 54.7376 20.7268H48.3632C48.6309 19.5557 49.1788 18.4766 50.007 17.4895C50.8435 16.494 51.9519 15.6993 53.3322 15.1054C54.7208 14.5031 56.3771 14.202 58.3012 14.202C59.6731 14.202 60.8776 14.3651 61.9149 14.6913C62.9522 15.0092 63.8097 15.4567 64.4873 16.0339C65.1732 16.6028 65.6542 17.272 65.9303 18.0416C66.2147 18.8028 66.2816 19.631 66.131 20.5261L63.9226 33.7264H57.4479L57.8996 31.0161H57.749C57.2471 31.7355 56.6825 32.3169 56.0551 32.7603C55.4361 33.2036 54.7585 33.5257 54.0223 33.7264C53.2945 33.9272 52.5124 34.0276 51.6759 34.0276ZM54.6874 29.6609C55.206 29.6609 55.7163 29.5522 56.2182 29.3347C56.7201 29.1172 57.1509 28.8035 57.5106 28.3936C57.8703 27.9837 58.1004 27.486 58.2008 26.9004L58.4517 25.2943C58.2677 25.3696 58.0627 25.4407 57.8369 25.5076C57.6194 25.5661 57.3893 25.6247 57.1467 25.6833C56.9125 25.7418 56.6616 25.7962 56.3939 25.8464C56.1346 25.8966 55.8669 25.9468 55.5908 25.997C55.0387 26.0806 54.5744 26.2186 54.198 26.411C53.8216 26.5951 53.5288 26.8251 53.3196 27.1012C53.1105 27.3689 52.9809 27.67 52.9307 28.0046C52.8554 28.5316 52.9767 28.9415 53.2945 29.2343C53.6208 29.5187 54.0851 29.6609 54.6874 29.6609ZM76.4673 34.0778C74.376 34.0778 72.6528 33.6637 71.2976 32.8355C69.9424 31.999 68.993 30.8362 68.4492 29.3472C67.9055 27.8499 67.8009 26.1141 68.1355 24.1399C68.4534 22.1657 69.131 20.4341 70.1683 18.945C71.214 17.4477 72.5524 16.2849 74.1836 15.4567C75.8232 14.6202 77.6887 14.202 79.78 14.202C81.6705 14.202 83.2474 14.5449 84.5105 15.2309C85.782 15.9085 86.6897 16.8705 87.2334 18.1169C87.7855 19.3549 87.9277 20.8105 87.66 22.4835H81.2355C81.3108 21.4797 81.1477 20.7101 80.7462 20.1747C80.353 19.6394 79.78 19.3717 79.0271 19.3717C78.4081 19.3717 77.8392 19.5473 77.3206 19.8987C76.8103 20.2417 76.3711 20.7645 76.0031 21.4672C75.6434 22.1615 75.3799 23.0357 75.2125 24.0897C75.0452 25.1437 75.0243 26.022 75.1498 26.7247C75.2836 27.419 75.543 27.9419 75.9278 28.2932C76.3209 28.6362 76.8187 28.8077 77.421 28.8077C77.9396 28.8077 78.4164 28.6906 78.8514 28.4563C79.2948 28.2137 79.6754 27.8624 79.9933 27.4023C80.3195 26.9339 80.5663 26.365 80.7336 25.6958H87.1581C86.8402 27.4023 86.2003 28.883 85.2383 30.1377C84.2763 31.3925 83.0508 32.3629 81.5618 33.0489C80.0728 33.7348 78.3746 34.0778 76.4673 34.0778ZM95.6373 29.159L97.0427 20.9276H97.9462L103.718 14.4529H111.498L102.012 24.5414H100.054L95.6373 29.159ZM88.6607 33.7264L92.927 8.0284H99.8534L95.5872 33.7264H88.6607ZM100.556 33.7264L97.394 26.0973L102.765 21.1786L108.486 33.7264H100.556ZM109.989 33.7264L114.255 8.0284H125.348C127.255 8.0284 128.861 8.40483 130.166 9.15771C131.471 9.91058 132.408 10.9688 132.977 12.3323C133.546 13.6959 133.679 15.2894 133.378 17.1131C133.077 18.9701 132.408 20.5721 131.371 21.9189C130.342 23.2573 129.028 24.2904 127.431 25.0182C125.841 25.7376 124.059 26.0973 122.085 26.0973H115.46L116.363 20.6767H121.583C122.42 20.6767 123.156 20.5344 123.792 20.25C124.427 19.9572 124.942 19.5473 125.335 19.0203C125.728 18.485 125.983 17.8492 126.1 17.1131C126.218 16.3769 126.163 15.7495 125.937 15.2309C125.72 14.7039 125.343 14.3023 124.808 14.0263C124.281 13.7419 123.608 13.5997 122.788 13.5997H120.328L116.966 33.7264H109.989ZM137.735 34.0276C136.514 34.0276 135.464 33.8268 134.586 33.4253C133.716 33.0154 133.08 32.3964 132.679 31.5682C132.286 30.7317 132.198 29.6777 132.415 28.4061C132.591 27.3521 132.921 26.4529 133.406 25.7083C133.892 24.9638 134.494 24.3532 135.213 23.8764C135.933 23.3995 136.74 23.0357 137.635 22.7847C138.539 22.5254 139.492 22.3581 140.496 22.2828C141.583 22.1991 142.466 22.0946 143.144 21.9691C143.821 21.8436 144.327 21.6721 144.662 21.4546C144.996 21.2371 145.197 20.9443 145.264 20.5763V20.5261C145.339 20.0242 145.206 19.6394 144.863 19.3717C144.528 19.104 144.06 18.9701 143.457 18.9701C142.805 18.9701 142.24 19.1124 141.763 19.3968C141.295 19.6812 140.973 20.1245 140.797 20.7268H134.423C134.691 19.5557 135.238 18.4766 136.067 17.4895C136.903 16.494 138.012 15.6993 139.392 15.1054C140.78 14.5031 142.437 14.202 144.361 14.202C145.733 14.202 146.937 14.3651 147.975 14.6913C149.012 15.0092 149.869 15.4567 150.547 16.0339C151.233 16.6028 151.714 17.272 151.99 18.0416C152.274 18.8028 152.341 19.631 152.191 20.5261L149.982 33.7264H143.507L143.959 31.0161H143.809C143.307 31.7355 142.742 32.3169 142.115 32.7603C141.496 33.2036 140.818 33.5257 140.082 33.7264C139.354 33.9272 138.572 34.0276 137.735 34.0276ZM140.747 29.6609C141.266 29.6609 141.776 29.5522 142.278 29.3347C142.78 29.1172 143.211 28.8035 143.57 28.3936C143.93 27.9837 144.16 27.486 144.26 26.9004L144.511 25.2943C144.327 25.3696 144.122 25.4407 143.896 25.5076C143.679 25.5661 143.449 25.6247 143.206 25.6833C142.972 25.7418 142.721 25.7962 142.453 25.8464C142.194 25.8966 141.926 25.9468 141.65 25.997C141.098 26.0806 140.634 26.2186 140.258 26.411C139.881 26.5951 139.588 26.8251 139.379 27.1012C139.17 27.3689 139.04 27.67 138.99 28.0046C138.915 28.5316 139.036 28.9415 139.354 29.2343C139.68 29.5187 140.145 29.6609 140.747 29.6609ZM164.484 8.0284L160.218 33.7264H153.292L157.558 8.0284H164.484ZM183.472 20.7268H177.249C177.282 20.3253 177.211 19.9823 177.035 19.6979C176.86 19.4135 176.613 19.196 176.295 19.0454C175.986 18.8949 175.634 18.8196 175.241 18.8196C174.555 18.8196 173.932 18.9743 173.371 19.2838C172.811 19.585 172.497 19.9823 172.43 20.4759C172.388 20.6683 172.451 20.8481 172.619 21.0154C172.786 21.1828 173.225 21.3375 173.936 21.4797L177.751 22.1824C179.658 22.5337 181.047 23.1737 181.917 24.1022C182.795 25.0224 183.113 26.2395 182.87 27.7537C182.644 29.067 182.067 30.1963 181.139 31.1416C180.21 32.0869 179.031 32.8146 177.6 33.3249C176.178 33.8268 174.605 34.0778 172.882 34.0778C169.845 34.0778 167.57 33.4713 166.056 32.2583C164.55 31.0454 163.864 29.4602 163.998 27.5027H170.724C170.741 28.1301 170.95 28.6027 171.351 28.9206C171.761 29.2301 172.305 29.3932 172.982 29.41C173.719 29.4351 174.363 29.2887 174.915 28.9708C175.467 28.6446 175.776 28.2388 175.843 27.7537C175.868 27.4776 175.747 27.2685 175.479 27.1263C175.22 26.9841 174.722 26.8418 173.986 26.6996L170.674 26.0973C168.766 25.7544 167.378 25.0684 166.508 24.0395C165.638 23.0022 165.337 21.6805 165.604 20.0744C165.822 18.7945 166.34 17.7195 167.16 16.8496C167.988 15.9796 169.076 15.3229 170.423 14.8795C171.769 14.4278 173.325 14.202 175.09 14.202C177.976 14.202 180.16 14.7833 181.64 15.9461C183.129 17.1005 183.74 18.6941 183.472 20.7268Z" fill="white"/>
<path d="M16.8095 8.40383H19.6144C21.8666 8.40383 23.578 10.4291 23.2022 12.6498L19.9285 31.9969L13.3743 13.2432C12.5476 10.8776 14.3035 8.40383 16.8095 8.40383Z" fill="white" stroke="white" stroke-width="1.67948"/>
</g>
<defs>
<clipPath id="clip0_332_31">
<rect width="189.5" height="41.2" fill="white"/>
</clipPath>
</defs>
</svg>
